<?xml version="1.0" standalone="no"?>
<!DOCTYPE svg PUBLIC "-//W3C//DTD SVG 20010904//EN"
 "http://www.w3.org/TR/2001/REC-SVG-20010904/DTD/svg10.dtd">
<svg version="1.0" xmlns="http://www.w3.org/2000/svg"
 width="500.000000pt" height="500.000000pt" viewBox="0 0 500.000000 500.000000"
 preserveAspectRatio="xMidYMid meet">
<metadata>
Created by potrace 1.11, written by Peter Selinger 2001-2013
</metadata>
<g transform="translate(0.000000,500.000000) scale(0.100000,-0.100000)"
fill="#000000" stroke="none">
<path d="M1882 3595 c-4 -5 -7 -224 -8 -485 -1 -261 -2 -477 -3 -480 0 -3
-281 -5 -623 -5 l-623 0 0 -210 0 -210 825 -1 c454 0 830 1 836 3 8 3 11 144
11 483 1 263 3 482 6 487 5 8 254 9 262 1 3 -3 5 -410 6 -906 0 -679 4 -902
12 -903 77 -4 1099 0 1104 5 3 3 6 411 5 906 l0 900 21 1 c33 1 230 1 245 0 9
-1 12 -189 12 -906 l0 -905 23 -1 c25 -1 230 -1 330 0 l67 1 0 1115 c0 885 -3
1115 -12 1116 -17 1 -1079 1 -1095 0 -10 -1 -13 -189 -13 -906 l0 -905 -138 0
-137 0 0 901 c0 495 -2 904 -5 907 -8 12 -1101 8 -1108 -3z"/>
</g>
</svg>
